<svg width="446" height="54" viewBox="0 0 446 54" fill="none" xmlns="http://www.w3.org/2000/svg">
<mask id="mask0_1_296" style="mask-type:alpha" maskUnits="userSpaceOnUse" x="0" y="0" width="441" height="54">
<ellipse cx="25.13" cy="2.22397" rx="2.08174" ry="1.87211" fill="#FAFAFA"/>
<ellipse cx="25.13" cy="2.22397" rx="2.08174" ry="1.87211" fill="#FAFAFA"/>
<ellipse cx="3.01161" cy="14.4552" rx="2.08174" ry="1.87211" fill="#FAFAFA"/>
<ellipse cx="47.2484" cy="14.4552" rx="2.08174" ry="1.87211" fill="#FAFAFA"/>
<ellipse cx="47.2484" cy="38.9172" rx="2.08174" ry="1.87211" fill="#FAFAFA"/>
<ellipse cx="3.01161" cy="38.9172" rx="2.08174" ry="1.87211" fill="#FAFAFA"/>
<ellipse cx="25.13" cy="51.1484" rx="2.08174" ry="1.87211" fill="#FAFAFA"/>
<ellipse cx="36.1892" cy="45.1575" rx="2.73228" ry="2.62095" fill="#FAFAFA"/>
<ellipse cx="14.0708" cy="45.1575" rx="2.73228" ry="2.62095" fill="#FAFAFA"/>
<ellipse cx="14.0708" cy="8.21467" rx="2.73228" ry="2.62095" fill="#FAFAFA"/>
<ellipse cx="36.1892" cy="8.21467" rx="2.73228" ry="2.62095" fill="#FAFAFA"/>
<ellipse cx="47.1182" cy="26.6862" rx="2.73228" ry="2.62095" fill="#FAFAFA"/>
<ellipse cx="2.88157" cy="26.6862" rx="2.73228" ry="2.62095" fill="#FAFAFA"/>
<ellipse cx="14.071" cy="20.5705" rx="3.25272" ry="3.24499" fill="#FAFAFA"/>
<ellipse cx="36.1894" cy="20.5705" rx="3.25272" ry="3.24499" fill="#FAFAFA"/>
<ellipse cx="36.1894" cy="32.8016" rx="3.25272" ry="3.24499" fill="#FAFAFA"/>
<ellipse cx="14.071" cy="32.8016" rx="3.25272" ry="3.24499" fill="#FAFAFA"/>
<ellipse cx="25.1301" cy="39.0424" rx="3.38283" ry="3.24499" fill="#FAFAFA"/>
<ellipse cx="25.1299" cy="26.8109" rx="3.90326" ry="3.74421" fill="#FAFAFA"/>
<ellipse cx="25.1301" cy="14.58" rx="3.38283" ry="3.24499" fill="#FAFAFA"/>
<path d="M90.913 11.5674C96.9125 11.5674 100.572 14.3331 100.572 19.0135C100.572 22.5026 98.4868 25.013 95.0403 25.7363C99.3378 26.3745 101.848 29.1828 101.848 33.2675C101.848 38.3309 97.8486 41.3519 91.0832 41.3519H78.3609V11.5674H90.913ZM90.7428 24.4598C94.7425 24.4598 97.0827 22.6728 97.0827 19.5241C97.0827 16.4605 94.7425 14.716 90.7428 14.716H81.7649V24.4598H90.7428ZM90.7428 38.2033C95.5934 38.2458 98.4017 36.2886 98.4017 32.8421C98.4017 29.5232 95.5934 27.5659 90.7428 27.6085H81.7649V38.2033H90.7428ZM116.797 11.5674H120.201V38.2033H133.263V41.3519H116.797V11.5674ZM169.256 41.3519L165.895 33.7356H149.684L146.365 41.3519H142.748L156.109 11.5674H159.64L172.958 41.3519H169.256ZM151.088 30.5869H164.533L157.768 15.2692L151.088 30.5869ZM206.473 18.2902C204.175 15.9925 200.942 14.5884 197.665 14.5884C190.943 14.5884 185.539 19.8219 185.539 26.4171C185.539 32.9697 190.943 38.2884 197.665 38.2884C200.942 38.2884 204.133 36.9268 206.473 34.7142L208.558 36.9693C205.622 39.7351 201.623 41.4796 197.495 41.4796C188.9 41.4796 182.092 34.8419 182.092 26.4171C182.092 18.0774 188.985 11.4823 197.623 11.4823C201.708 11.4823 205.665 13.1417 208.516 15.8223L206.473 18.2902ZM247.01 41.3519H242.84L231.862 27.183L226.075 33.5654V41.3519H222.671V11.5674H226.075V28.885L242.074 11.5674H246.116L234.287 24.5449L247.01 41.3519ZM272.953 11.5674C278.952 11.5674 282.612 14.3331 282.612 19.0135C282.612 22.5026 280.527 25.013 277.08 25.7363C281.378 26.3745 283.888 29.1828 283.888 33.2675C283.888 38.3309 279.888 41.3519 273.123 41.3519H260.401V11.5674H272.953ZM272.783 24.4598C276.782 24.4598 279.123 22.6728 279.123 19.5241C279.123 16.4605 276.782 14.716 272.783 14.716H263.805V24.4598H272.783ZM272.783 38.2033C277.633 38.2458 280.442 36.2886 280.442 32.8421C280.442 29.5232 277.633 27.5659 272.783 27.6085H263.805V38.2033H272.783ZM311.644 11.4823C320.324 11.4823 327.217 18.0774 327.217 26.4596C327.217 34.8419 320.324 41.4796 311.644 41.4796C302.921 41.4796 296.028 34.8419 296.028 26.4596C296.028 18.0774 302.921 11.4823 311.644 11.4823ZM311.644 14.6309C305.006 14.6309 299.475 19.8645 299.475 26.4596C299.475 33.0548 305.006 38.3735 311.644 38.3735C318.282 38.3735 323.728 33.0548 323.728 26.4596C323.728 19.8645 318.282 14.6309 311.644 14.6309ZM338.619 11.5674H342.619L350.831 23.1833L359.128 11.5674H363.128L353.001 25.864L363.979 41.3519H359.894L350.831 28.7999L341.853 41.3519H337.853L348.789 26.0342L338.619 11.5674ZM420.605 41.3519L417.244 33.7356H401.033L397.714 41.3519H394.097L407.457 11.5674H410.989L424.307 41.3519H420.605ZM402.437 30.5869H415.882L409.117 15.2692L402.437 30.5869ZM436.956 11.5674H440.36V41.3519H436.956V11.5674Z" fill="#FAFAFA"/>
</mask>
<g mask="url(#mask0_1_296)">
<rect width="462" height="61" transform="matrix(1 0 0 -1 -5.00012 57.1863)" fill="url(#paint0_radial_1_296)"/>
</g>
<defs>
<radialGradient id="paint0_radial_1_296" cx="0" cy="0" r="1" gradientUnits="userSpaceOnUse" gradientTransform="translate(231 61) rotate(-90) scale(61 462)">
<stop stop-color="white"/>
<stop offset="1" stop-color="white" stop-opacity="0.45"/>
</radialGradient>
</defs>
</svg>
